<mxfile host="app.diagrams.net" modified="2024-07-19T05:42:27.583Z" agent="Mozilla/5.0 (Windows NT 10.0; Win64; x64) AppleWebKit/537.36 (KHTML, like Gecko) Chrome/126.0.0.0 Safari/537.36" version="24.7.1" etag="TfzK-ijdykzFhJrLhg4S" type="github">
  <diagram name="Trang-1" id="hX5sAotGmXwE_Q3hdC7M">
    <mxGraphModel>
      <root>
        <mxCell id="0" />
        <mxCell id="1" parent="0" />
      </root>
    </mxGraphModel>
  </diagram>
</mxfile>
